<svg xmlns="http://www.w3.org/2000/svg" xmlns:svg="http://www.w3.org/2000/svg" id="svg1" width="1500.701" height="100.52" version="1.1" viewBox="0 0 397.061 26.596"><title id="title23">stars.svg</title><metadata id="metadata1"/><path style="fill:#ffbf18;fill-opacity:1;stroke-width:.264583" id="path21" d="m 14.029823,10.597488 c -0.297678,-0.9798009 -0.285026,-2.0291751 -0.08375,-3.0275417 0.05668,-0.2811653 0.143052,-0.5555215 0.214578,-0.8332824 0.3102,-0.7574757 0.713836,-1.4889113 1.328515,-2.0456343 0.196071,-0.1775849 0.643468,-0.5294167 0.975816,-0.4700021 0.14399,0.025741 0.240493,0.1665714 0.360739,0.2498572 -0.926081,-0.4710949 -1.784662,-1.1093855 -2.778242,-1.4132846 -0.265154,-0.081101 0.319331,0.4552352 0.448366,0.7006622 0.656448,1.2485817 0.977306,2.6643369 1.313069,4.0227543 0.158615,0.6723742 0.283171,1.3525248 0.492512,2.0118697 0.01634,0.05146 0.161433,0.5241767 0.261763,0.5813727 1.181584,0.673607 2.406486,1.268214 3.609729,1.902321 1.156399,-0.581255 2.392059,-1.0154 3.686277,-1.152067 0.449625,-0.04748 0.903116,-0.04529 1.354675,-0.06794 0.492706,0.02449 0.987581,0.02121 1.478119,0.07348 0.496988,0.05295 0.989602,0.144168 1.479801,0.241672 0.9232,0.183632 1.653146,0.366573 2.507879,0.749783 0.317056,0.142149 1.223185,0.659843 0.915046,0.499274 -0.795179,-0.414362 -1.584179,-0.840471 -2.376268,-1.260707 0.345914,0.412939 0.64521,0.848629 0.396624,1.411675 -0.291021,0.659155 -1.047131,1.031282 -1.617126,1.384952 -0.721817,0.380785 -1.471199,0.707487 -2.243368,0.971661 -0.462496,0.158229 -0.932921,0.284668 -1.392721,0.45128 -0.236524,0.08951 -0.490648,0.195583 -0.476515,0.507169 0.0093,0.204842 0.21304,0.393914 0.319109,0.536416 0.08471,0.113804 0.164061,0.231496 0.246091,0.347243 0.537284,0.827537 0.89637,1.761194 0.908358,2.758 0.0026,0.214055 -0.02551,0.42738 -0.03826,0.641071 -0.120113,0.525634 -0.246406,1.39261 -0.817895,1.649927 -0.314019,0.141389 -0.668031,0.111722 -0.998206,0.119451 -0.996026,-0.102542 -1.937555,-0.457078 -2.822525,-0.912944 -0.230037,-0.118497 -0.902283,-0.507137 -0.678006,-0.37807 0.827312,0.476101 1.658103,0.946132 2.487155,1.419197 -1.555668,-1.043595 -3.164128,-1.954613 -4.815493,-2.863119 -0.259754,-0.142905 -0.36719,-0.05075 -0.630631,0.02534 -0.114516,0.05313 -0.233739,0.0971 -0.343547,0.159377 -0.303292,0.172005 -0.726568,0.505112 -0.989176,0.689653 -0.261741,0.183931 -0.525092,0.365662 -0.791847,0.542242 -0.86443,0.572213 -1.075302,0.686799 -1.972939,1.229358 -1.693306,0.992941 -3.4015572,1.972004 -5.2341425,2.685393 -0.362539,0.117428 -0.5075791,0.250564 -0.8709634,0.07745 C 6.7167138,24.752907 6.3934609,24.487352 6.518,24.549636 7.4823901,25.031946 8.3779113,25.653547 9.3696744,26.076722 9.5360261,26.147711 9.1454326,25.791013 9.0572343,25.633109 8.9531377,25.446742 8.8827022,25.243477 8.795436,25.048661 8.4798666,23.971455 8.3814866,22.797567 8.7310972,21.713367 8.7921567,21.524012 8.8807281,21.34466 8.9555435,21.160307 9.1057673,20.745753 9.4923342,20.329184 9.4012757,19.850664 9.3185143,19.415745 8.9928596,19.124257 8.6300185,18.904142 7.3517833,18.128712 6.0333924,17.421496 4.7350793,16.680173 3.7321254,16.193947 2.7155825,15.730867 1.7403854,15.189381 1.4350234,15.019827 0.52737458,14.497237 0.83859046,14.655791 3.0429271,15.778827 3.8060256,16.47548 2.5101237,15.398588 1.9730592,14.832723 1.4637222,14.144798 1.562447,13.315409 1.6234355,12.803043 1.7578674,12.685258 2.0182281,12.245433 2.1985738,12.063389 2.3623916,11.86333 2.5592652,11.699303 3.5258277,10.893998 4.7588172,10.398914 5.9641395,10.08481 6.2539869,10.009277 6.5495164,9.957528 6.8422048,9.893887 7.7551967,9.7108993 8.6832238,9.662103 9.6061674,9.7928442 c 0.2347355,0.033252 0.6230146,0.1246534 0.8620436,0.1782765 0,0 -3.0315845,-2.2884979 -3.0315845,-2.2884979 v 0 C 6.2611494,7.5133614 5.0827847,7.5744691 3.9306888,7.8814559 3.24446,8.0613633 2.815622,8.1538634 2.1462893,8.4134305 1.8442147,8.5305751 1.550181,8.668043 1.2582731,8.8086193 0.38419407,9.2295561 -0.46298162,9.7039093 -1.1463567,10.4058 c -0.3206637,0.500791 -0.4781439,0.63569 -0.5871555,1.225362 -0.1736946,0.939558 0.3194098,1.735388 0.90518461,2.418311 1.71088624,1.452479 0.52077325,0.499076 4.36850119,2.793703 1.2713653,0.75819 2.6335265,1.34587 3.9367362,2.044377 -0.7491651,-0.444811 -1.495538,-0.89436 -2.2474952,-1.334435 -0.2784673,-0.16297 0.6151703,0.299742 0.774862,0.580102 0.2237099,0.392753 -0.1853772,0.872498 -0.2658909,1.234923 -0.145727,0.392166 -0.3382995,0.858638 -0.4100254,1.272265 -0.038559,0.222362 -0.038767,0.449885 -0.046791,0.675423 -0.026143,0.734919 0.028074,1.465774 0.1885553,2.184725 0.062864,0.20983 0.1070849,0.426175 0.1885929,0.62949 0.6179966,1.541543 2.3596581,1.906562 3.809257,2.785156 0.440966,0.267269 0.9138405,0.07046 1.3164215,-0.144785 1.695647,-0.91249 3.313179,-1.961576 5.006527,-2.878973 0.975657,-0.569748 1.953697,-1.132333 2.960733,-1.645574 0.173324,-0.08834 0.849689,-0.425838 1.115355,-0.515707 0.101094,-0.0342 0.208375,-0.04623 0.312562,-0.06935 0.08427,0.0135 0.170981,0.01628 0.25282,0.0405 0.07693,0.02277 0.146192,0.06615 0.219288,0.09923 -0.981266,-0.571072 -1.962533,-1.142144 -2.943799,-1.713216 -0.129969,-0.07575 0.26275,0.146734 0.390961,0.225419 0.0552,0.03387 0.999508,0.646734 1.001164,0.647808 1.237996,0.715959 2.470573,1.441371 3.713988,2.147878 0.909232,0.516625 1.926288,0.932874 2.960948,1.108922 0.243869,0.04149 0.49218,0.05034 0.738272,0.07551 0.454628,-0.05065 0.781642,-0.03672 1.189487,-0.280445 0.64316,-0.384352 0.717005,-1.31018 0.867127,-1.959545 0.0172,-0.228152 0.04639,-0.455716 0.05156,-0.684455 0.02283,-1.010541 -0.214381,-1.985778 -0.705609,-2.868328 -0.06584,-0.12315 -0.239319,-0.477198 -0.355151,-0.59953 -0.221003,-0.233405 -0.05165,0.0122 -0.249348,-0.02706 -0.09383,-0.01863 0.534686,-0.320965 0.228285,-0.173892 0.405424,-0.200615 0.821608,-0.368845 1.235112,-0.552009 0.744736,-0.329884 1.472578,-0.695465 2.19705,-1.067326 0.67609,-0.395119 1.561788,-0.802995 1.933839,-1.551097 0.16623,-0.334248 0.15358,-0.886927 0.02477,-1.223573 -0.08688,-0.227054 -0.255915,-0.413422 -0.383873,-0.620133 -0.396875,-0.242421 -3.15835,-2.12328 -4.54124,-2.644901 C 27.178291,9.7286597 26.465956,9.5838191 25.589718,9.4350847 24.037744,9.1716494 24.134151,9.2227439 22.555135,9.1396819 c -1.112327,0.02657 -1.647777,-0.00404 -2.72303,0.1782614 -0.295513,0.050102 -1.418317,0.3622704 -1.735073,0.4498015 -0.206132,0.056962 -0.408301,0.1300133 -0.617754,0.1731864 -0.134524,0.027728 -0.273489,0.025802 -0.410234,0.038704 1.023703,0.6183248 2.052682,1.2279968 3.071109,1.8549748 0.08032,0.04945 -0.189339,-0.05436 -0.255493,-0.121587 -0.09572,-0.09727 -0.147606,-0.230067 -0.209992,-0.351436 C 19.335924,10.702578 19.147262,9.9834318 18.937528,9.2769509 18.657771,8.2335665 18.388525,7.1850977 18.069088,6.1528912 18.05247,6.099194 17.582674,4.5946229 17.444717,4.4865681 16.320587,3.6060872 15.04682,2.93552 13.847871,2.1599959 c -0.164753,-0.01 -0.333372,-0.06685 -0.49426,-0.029989 -0.325152,0.074494 -0.752509,0.4931523 -0.947331,0.7050399 -0.592344,0.6442321 -1.023,1.4075253 -1.36713,2.207289 -0.354824,1.2882055 -0.622541,2.5052536 -0.544111,3.8503915 z"/><path style="fill:#ffbf18;fill-opacity:1;stroke-width:.264583" id="path22" d="m 385.68402,10.067924 c -0.0148,-0.093199 -0.055,-0.1814295 -0.0665,-0.275047 -0.0486,-0.3941971 0.0398,-0.8096078 0.18918,-1.1736136 0.0826,-0.2013683 0.19283,-0.3902914 0.28924,-0.5854372 0.41164,-0.6059051 0.95142,-1.0871049 1.56914,-1.4748695 0.30837,-0.1935808 0.67477,-0.3864223 1.03473,-0.4706181 0.15288,-0.035759 0.31229,-0.032778 0.46845,-0.049168 0.14846,0.021701 0.30099,0.024188 0.44534,0.065104 0.15018,0.042573 0.28729,0.1221978 0.43096,0.1832967 -0.81629,-0.4548449 -1.6101,-0.9525714 -2.44885,-1.3645348 -0.1923,-0.09445 0.34819,0.2531687 0.49797,0.4063304 0.50453,0.5158468 0.55102,0.6964434 0.89419,1.3158615 0.29755,0.6786809 0.50966,1.3999271 0.53543,2.1442897 0.008,0.229798 -0.007,0.3355438 -0.0266,0.5527098 -0.21193,1.6319151 0.67898,0.9862111 3.33849,2.4927251 0.0515,0.02918 0.10882,-0.04773 0.16592,-0.06335 0.064,-0.01751 0.13057,-0.02376 0.19587,-0.03564 0.64868,-0.100709 1.32688,-0.106024 1.95778,0.102417 0.17857,0.059 0.34595,0.147638 0.51893,0.221458 -4.6269,-2.6122458 -2.53161,-1.593274 -1.83486,-0.918164 0.14883,0.144214 0.28017,0.306658 0.40182,0.474443 0.19572,0.269945 0.36463,0.599366 0.47536,0.915237 0.0423,0.12072 0.0646,0.247562 0.0969,0.371343 0.062,0.340214 0.0518,0.681732 -0.15677,0.972478 -0.10485,0.146195 -0.22154,0.228936 -0.3583,0.344446 -0.40439,0.273865 -0.86146,0.46145 -1.33178,0.588555 -0.2368,0.06399 -0.5198,0.115185 -0.76144,0.162426 -0.26485,0.04481 -0.53174,0.0779 -0.79688,0.120364 -0.0529,0.0085 -0.24759,0.03776 -0.30191,0.08158 -0.0488,0.03943 -0.0771,0.09913 -0.1156,0.1487 -0.0111,0.08681 -0.0499,0.174486 -0.0333,0.260425 0.0217,0.112786 0.2685,0.277264 0.32621,0.322473 0.26313,0.2062 0.5175,0.414425 0.76509,0.639195 0.32534,0.307628 0.63477,0.631257 0.8976,0.994621 0.16587,0.229307 0.19855,0.293758 0.34515,0.534745 0.20696,0.365538 0.37346,0.75428 0.45723,1.167463 0.0491,0.242163 0.0446,0.343541 0.0574,0.593642 -0.0196,0.10542 -0.028,0.21347 -0.0584,0.31626 -0.12335,0.416378 -0.41823,0.788175 -0.75219,1.05727 -0.0926,0.07465 -0.1947,0.136778 -0.29204,0.205167 -0.30464,0.1811 -0.6354,0.31263 -0.98166,0.388735 -0.0965,0.02122 -0.19405,0.04301 -0.29282,0.04668 -0.24484,0.0091 -0.32091,-0.04308 -0.55006,-0.124005 -0.10555,-0.05329 -0.21339,-0.10226 -0.31663,-0.159864 -0.12711,-0.07091 -0.50075,-0.296893 -0.37396,-0.225417 0.79825,0.449992 1.58109,0.927604 2.38844,1.361044 0.20508,0.110092 -0.38896,-0.255839 -0.5793,-0.389776 -0.19082,-0.134269 -0.37888,-0.272552 -0.56393,-0.414666 -0.17947,-0.13784 -0.35296,-0.283339 -0.52944,-0.425008 -0.40417,-0.328743 -0.77507,-0.694869 -1.12892,-1.076415 -0.0655,-0.07064 -0.12869,-0.143395 -0.19307,-0.215074 -0.0424,-0.04715 -0.0724,-0.109406 -0.1271,-0.141416 -1.11887,-0.654799 -2.25698,-1.27616 -3.38548,-1.914239 -0.0796,0.08175 -0.17293,0.152076 -0.23878,0.245267 -0.0664,0.09391 -0.10462,0.204854 -0.15293,0.309188 -0.17312,0.373771 -0.17225,0.437343 -0.38405,0.815888 -0.13896,0.248338 -0.45431,0.716817 -0.60367,0.943527 -0.70244,0.903241 -1.55993,1.694663 -2.56148,2.256973 -0.17751,0.09967 -0.36473,0.180976 -0.54711,0.271464 -0.46201,0.189843 -0.93983,0.352215 -1.44155,0.390288 -0.12825,0.0097 -0.25848,0.01737 -0.38585,-4.5e-4 -0.28548,-0.03993 -0.39984,-0.138507 -0.64254,-0.279674 5.72937,3.213881 3.10552,2.009136 2.40562,1.234808 -0.11509,-0.12734 -0.21799,-0.266206 -0.31065,-0.41069 -0.22177,-0.34576 -0.42288,-0.794326 -0.54641,-1.179421 -0.0775,-0.241736 -0.12327,-0.492547 -0.18492,-0.73882 -0.14835,-0.821912 -0.18198,-1.665807 -0.0409,-2.491249 0.022,-0.128953 0.0576,-0.25523 0.0842,-0.383313 0.0222,-0.106908 0.0415,-0.214404 0.0623,-0.321606 -0.005,-0.103852 0.0151,-0.211927 -0.0148,-0.311555 -0.15145,-0.507602 -0.71522,-0.773115 -1.12313,-1.025428 -1.05289,-0.65123 -0.41172,-0.216721 -1.42246,-0.94387 -0.46915,-0.413056 -0.63312,-0.522822 -1.02118,-0.987936 -0.22974,-0.27534 -0.42106,-0.525977 -0.48649,-0.88814 -0.0754,-0.417115 0.0347,-0.61248 0.15012,-1.010271 0.10041,-0.176194 0.18421,-0.362964 0.30126,-0.528581 0.12851,-0.181853 0.27585,-0.350835 0.43225,-0.509351 0.18841,-0.190967 0.38452,-0.376523 0.59976,-0.536656 0.4664,-0.347014 1.0878,-0.665962 1.62221,-0.885198 0.28006,-0.114888 0.57184,-0.1988 0.85775,-0.298201 1.13681,-0.347871 2.33143,-0.546268 3.52243,-0.450582 0.14028,0.01127 0.27924,0.0353 0.41888,0.05296 0.1075,0.02027 0.21503,0.04054 0.32253,0.06081 0,0 -2.95195,-2.179959 -2.95195,-2.179959 v 0 c -0.084,0.00536 -0.16802,0.010713 -0.25205,0.016071 -1.20745,0.1314493 -2.38797,0.4399058 -3.5325,0.8426069 -0.86331,0.3846753 -1.72964,0.7580725 -2.55008,1.2306541 -0.26829,0.154527 -0.54491,0.29951 -0.78928,0.489597 -0.4222,0.328423 -0.60987,0.659768 -0.90948,1.085818 -0.19211,0.459418 -0.35105,0.670819 -0.29583,1.186027 0.0573,0.534754 0.24797,0.705174 0.59513,1.093145 0.43592,0.487146 0.63486,0.642038 1.12638,1.085771 0.55227,0.444277 0.58994,0.497305 1.14938,0.867966 0.21299,0.141122 0.76941,0.42522 0.92797,0.640147 0.0537,0.0728 0.0757,0.164338 0.11359,0.246507 0.008,0.117915 0.0198,0.235653 0.0249,0.353746 0.0254,0.570937 -0.007,0.379687 0.0325,1.004022 0.0364,0.566698 0.0743,0.785076 0.13901,1.362531 0.0285,0.254503 0.0548,0.509243 0.0823,0.763865 0.0315,0.209261 0.167,1.15601 0.2282,1.387219 0.0472,0.178449 0.1192,0.349856 0.1928,0.519134 0.6921,1.591319 2.14104,1.865452 3.84977,2.779145 0.31652,0.09646 0.40801,0.156337 0.74795,0.12963 0.11904,-0.0094 0.23466,-0.04565 0.34978,-0.07735 0.47051,-0.129549 0.91091,-0.33739 1.33138,-0.583158 0.17034,-0.109472 0.3451,-0.212357 0.51099,-0.328417 0.18021,-0.126044 0.35312,-0.262252 0.52658,-0.397385 0.7548,-0.58796 1.47653,-1.221589 2.13582,-1.915585 0.71924,-0.795998 0.14848,-0.133364 0.73975,-0.897196 0.1011,-0.130615 0.20547,-0.258761 0.31284,-0.384283 0.0643,-0.0752 0.30906,-0.374727 0.45172,-0.426512 0.0236,-0.0086 0.0376,0.03334 0.0564,0.05001 -1.02859,-0.604347 -2.05719,-1.208694 -3.08578,-1.813041 0.0843,0.05223 0.17319,0.09771 0.25291,0.156689 0.10965,0.0811 0.21045,0.173534 0.3138,0.262531 0.4564,0.393077 0.89537,0.805949 1.35432,1.196155 0.51787,0.428163 0.52956,0.446801 1.06127,0.851083 0.16537,0.125724 0.32327,0.26287 0.50035,0.371457 1.11636,0.684577 2.24862,1.342925 3.37754,2.006556 0.15812,0.09295 0.31703,0.185656 0.48334,0.26302 0.13394,0.06231 0.27681,0.103312 0.41519,0.154967 0.12353,0.01712 0.2459,0.04965 0.3706,0.05138 0.21191,0.0029 0.40378,-0.0624 0.59682,-0.1391 0.34166,-0.135754 0.6672,-0.313569 0.98121,-0.503276 0.28816,-0.200733 0.38428,-0.244582 0.62309,-0.499851 0.3492,-0.373249 0.57153,-0.841108 0.68988,-1.334478 0.0167,-0.119895 0.0497,-0.238647 0.0498,-0.359685 5e-5,-0.107285 -0.03,-0.212527 -0.0494,-0.318038 -0.0806,-0.437911 -0.20516,-0.87034 -0.4127,-1.265965 -0.33065,-0.594689 -0.71676,-1.158196 -1.21468,-1.627331 -0.20775,-0.211365 -0.41722,-0.41474 -0.63735,-0.612856 -0.006,-0.0051 -0.15775,-0.179225 -0.22379,-0.153286 -0.0532,0.02089 -0.0823,0.07924 -0.12348,0.118865 -0.0209,0.01573 -0.0473,0.0262 -0.0631,0.04719 -0.0127,0.01682 0.0345,-0.02444 0.0532,-0.03405 0.0362,-0.01861 0.0735,-0.03541 0.11139,-0.05042 0.21479,-0.08505 0.4386,-0.145743 0.65464,-0.227265 0.37279,-0.121268 0.74684,-0.238629 1.11958,-0.360003 0.38923,-0.126735 0.77399,-0.257095 1.11742,-0.48739 0.20465,-0.166531 0.31138,-0.227999 0.46101,-0.448108 0.18436,-0.271213 0.26852,-0.607029 0.22375,-0.933155 -0.018,-0.131211 -0.0668,-0.256314 -0.10025,-0.384471 -0.0566,-0.150028 -0.10549,-0.303164 -0.1697,-0.450085 -0.23162,-0.529873 -0.57462,-1.123867 -0.94589,-1.566308 -0.13477,-0.160627 -0.26175,-0.338989 -0.43979,-0.449793 -1.09886,-0.68396 -2.24877,-1.282305 -3.37314,-1.923457 -0.19146,-0.067613 -0.37931,-0.1464249 -0.57433,-0.202838 -0.33491,-0.09687 -0.77343,-0.1730425 -1.12284,-0.2056326 -0.14563,-0.013581 -0.29237,-0.00963 -0.43842,-0.017232 -0.30649,-0.015954 -0.46328,-0.030764 -0.75657,-0.054926 -0.0779,-0.014092 -0.15994,-0.013409 -0.23366,-0.042274 -0.0502,-0.019666 -0.17378,-0.1273061 -0.12771,-0.099268 1.07527,0.6545676 2.14566,1.3171426 3.21625,1.9793786 0.0274,0.01696 -0.0644,-0.01989 -0.0865,-0.04336 -0.074,-0.07856 -0.10139,-0.23647 -0.12692,-0.326349 -0.0869,-0.384669 -0.16097,-0.772455 -0.27072,-1.1516569 -0.19074,-0.6589207 -0.45395,-1.2919847 -0.72237,-1.9222561 -0.10911,-0.2294802 -0.5154,-1.1124086 -0.67479,-1.3413599 -0.11419,-0.1640491 -0.239,-0.3328022 -0.40815,-0.439325 -1.10495,-0.6959092 -2.24252,-1.3406583 -3.39449,-1.9556016 -0.15486,-0.082666 -0.33621,-0.108853 -0.5106,-0.1289817 -0.1628,-0.018793 -0.32766,0.00888 -0.49149,0.013317 -0.15451,0.048808 -0.3157,0.080137 -0.46357,0.1464251 -0.32467,0.1455365 -0.66218,0.4083659 -0.92872,0.6339854 -0.57031,0.4827767 -1.08521,1.028651 -1.6139,1.5549787 -0.16545,0.1792017 -0.34679,0.3449389 -0.49633,0.537605 -0.10785,0.1389279 -0.18714,0.29806 -0.27192,0.4521401 -0.11932,0.2168271 -0.205,0.428644 -0.30631,0.6518619 -0.0251,0.055234 -0.0537,0.1088485 -0.0772,0.1647714 -0.008,0.019738 -0.0119,0.041118 -0.018,0.061677 z"/><path style="fill:#ffbf18;fill-opacity:1;stroke-width:.265;stroke-dasharray:none" id="path23" d="m 41.37651,17.545262 c 2.14577,-1.794235 4.377512,-3.470793 6.957186,-4.574975 0.413772,-0.09739 0.818206,-0.251281 1.241312,-0.292177 1.176245,-0.113692 2.459704,0.129794 3.595338,0.340321 2.590578,0.480247 5.097169,1.248261 7.630475,1.959281 3.282857,0.6449 6.593631,2.150168 10.003977,2.021847 0.616339,-0.02319 1.222479,-0.164904 1.833719,-0.247356 3.545287,-0.895377 6.89842,-2.389428 10.342734,-3.59111 2.425758,-0.84632 3.000775,-0.964256 5.434444,-1.638783 5.840759,-1.6243995 9.410168,-0.476569 14.853405,1.646849 5.08349,2.097887 9.9196,4.752872 15.15926,6.454583 0.98657,0.24791 2.5119,0.710408 3.56194,0.669101 2.98348,-0.117364 5.85116,-1.68652 8.48737,-2.925717 2.62295,-1.357814 5.34319,-2.247986 8.26934,-2.570284 3.6073,-0.424381 7.09051,0.640993 10.47863,1.743617 2.61218,0.638383 5.34105,1.991078 8.1041,1.799005 0.63988,-0.04448 1.26214,-0.2296 1.8932,-0.3444 4.41422,-1.436747 8.25016,-4.114053 12.51703,-5.905389 1.24115,-0.349435 2.08383,-0.686035 3.4051,-0.647831 3.21782,0.09304 6.67504,1.581541 9.67759,2.640025 2.35808,0.731443 4.70593,1.903467 7.21792,2.018639 1.33116,0.06103 2.17059,-0.150362 3.47505,-0.36763 3.29536,-0.927866 6.40784,-2.384261 9.56948,-3.679968 1.70478,-0.572556 3.49428,-1.127003 5.3086,-1.201068 1.24045,-0.05064 2.09889,0.123821 3.33355,0.290254 4.32513,1.024975 8.54514,2.434014 12.88432,3.413282 4.40918,1.071074 6.4052,0.451475 10.47415,-1.360553 3.53376,-1.792705 7.03567,-3.6575104 10.86684,-4.7259542 3.26311,-0.6034291 6.33985,0.6733469 9.28948,1.9193502 3.07493,1.16926 6.1715,2.451629 9.43649,2.994157 1.84798,0.307072 2.2139,0.231457 4.03463,0.222652 3.01464,-0.236742 5.82184,-1.521548 8.53546,-2.77948 2.72388,-1.2572704 5.71727,-1.4007872 8.66164,-1.2109908 4.81025,0.7667878 9.40289,2.4753018 14.1183,3.6557438 2.87271,0.603414 5.8122,1.427983 8.77577,1.017074 0.5656,-0.07842 1.118,-0.233002 1.67701,-0.349502 3.09944,-1.055474 5.90037,-2.779387 8.95377,-3.9492293 3.12433,-0.9106943 6.41559,-0.033854 9.47983,0.7338483 3.62112,1.164311 7.23794,2.215128 11.00032,2.799088 2.838,0.401043 5.68608,0.523338 8.53908,0.282415 2.1938,-0.356031 4.29022,-1.109615 6.47743,-1.506043 1.03941,-0.14561 2.00543,0.0785 2.99799,0.344663 0,0 -3.1201,-2.385772 -3.1201,-2.385772 v 0 c -1.02103,-0.236937 -2.02769,-0.3824898 -3.07591,-0.19225 -2.16337,0.426225 -4.24458,1.195509 -6.43451,1.486283 -2.81961,0.224155 -5.64023,0.07297 -8.4414,-0.324867 -3.74555,-0.605268 -7.34295,-1.6967802 -10.96417,-2.8117767 -3.14222,-0.7563355 -6.50825,-1.6204403 -9.68397,-0.5877242 -2.99415,1.2292208 -5.7564,2.9839169 -8.86809,3.9214489 -0.55147,0.100311 -1.09757,0.237052 -1.65444,0.300932 -2.91856,0.33479 -5.81353,-0.47855 -8.64206,-1.060994 -4.73853,-1.2063756 -9.36633,-2.9172778 -14.2145,-3.6375882 -3.00193,-0.1472232 -6.05247,0.023151 -8.81351,1.3356936 -2.66234,1.2397872 -5.41157,2.5069926 -8.38282,2.6814366 -1.78755,-0.01385 -2.14156,0.05486 -3.95422,-0.265688 -3.25662,-0.575886 -6.34832,-1.8570044 -9.40964,-3.0575354 -3.02734,-1.2496355 -6.17709,-2.500944 -9.49935,-1.7521258 -3.80359,1.1492817 -7.26142,3.0847741 -10.82248,4.8146512 -1.50514,0.639915 -2.4595,1.128948 -4.04343,1.495014 -2.1131,0.488364 -4.24524,0.06707 -6.32772,-0.355574 -4.34535,-0.983941 -8.57036,-2.4022418 -12.91189,-3.3882409 -1.3775,-0.1647529 -2.04803,-0.3097692 -3.42027,-0.2314999 -1.84103,0.1050073 -3.64588,0.6730127 -5.36969,1.2818721 -3.12236,1.3059877 -6.19031,2.8051447 -9.48699,3.6256867 -1.38497,0.200688 -2.01242,0.369635 -3.41607,0.265339 -2.4673,-0.183327 -4.77179,-1.30777 -7.10344,-2.018801 -3.11984,-1.078872 -6.47961,-2.5322479 -9.83856,-2.5462195 -1.36685,-0.00569 -2.18633,0.351332 -3.45707,0.7454612 -4.20758,1.8469883 -8.01592,4.5629663 -12.4652,5.8262193 -0.62298,0.08373 -1.2407,0.230535 -1.86894,0.251176 -2.74428,0.09016 -5.41888,-1.197098 -8.01927,-1.846495 -3.43879,-1.090571 -6.97633,-2.103599 -10.62248,-1.647092 -2.98554,0.361342 -5.61063,1.316255 -8.28003,2.714567 -2.62153,1.250196 -5.40318,2.716962 -8.38956,2.727491 -1.03557,0.0037 -2.52096,-0.4538 -3.4954,-0.707343 -5.19182,-1.728182 -10.01275,-4.33182 -15.06721,-6.407516 -1.913148,-0.737166 -3.41827,-1.3996314 -5.402184,-1.8685577 -3.219323,-0.7609326 -6.459186,-0.5336058 -9.6173,0.3961432 -2.371791,0.6800795 -3.068608,0.8439545 -5.436722,1.6743665 -3.439337,1.206051 -6.803718,2.69412 -10.383194,3.453889 -0.598771,0.06145 -1.194433,0.177579 -1.796312,0.184344 -3.368379,0.03786 -6.633694,-1.369726 -9.882021,-2.024731 -3.12072,-0.873991 -8.24657,-2.648249 -11.458072,-2.223261 -0.436015,0.0577 -0.848484,0.232013 -1.272728,0.348019 -2.593588,1.171882 -4.82274,2.908419 -7.077509,4.627393 z"/></svg>